<svg xmlns="http://www.w3.org/2000/svg" viewBox="0 0 100 1000">
	<rect fill="#213055" width="100" height="1000" />
	<g>
		<circle fill="#213055" cx="50" cy="0" r="50" />
		<g fill="#2c315d">
			<circle cx="0" cy="50" r="50" />
			<circle cx="100" cy="50" r="50" />
		</g>
		<circle fill="#373365" cx="50" cy="100" r="50" />
		<g fill="#42346d">
			<circle cx="0" cy="150" r="50" />
			<circle cx="100" cy="150" r="50" />
		</g>
		<circle fill="#4d3676" cx="50" cy="200" r="50" />
		<g fill="#59377e">
			<circle cx="0" cy="250" r="50" />
			<circle cx="100" cy="250" r="50" />
		</g>
		<circle fill="#643986" cx="50" cy="300" r="50" />
		<g fill="#6f3a8e">
			<circle cx="0" cy="350" r="50" />
			<circle cx="100" cy="350" r="50" />
		</g>
		<circle fill="#7a3c96" cx="50" cy="400" r="50" />
		<g fill="#853d9e">
			<circle cx="0" cy="450" r="50" />
			<circle cx="100" cy="450" r="50" />
		</g>
		<circle fill="#903fa7" cx="50" cy="500" r="50" />
		<g fill="#9b40af">
			<circle cx="0" cy="550" r="50" />
			<circle cx="100" cy="550" r="50" />
		</g>
		<circle fill="#a641b7" cx="50" cy="600" r="50" />
		<g fill="#b143bf">
			<circle cx="0" cy="650" r="50" />
			<circle cx="100" cy="650" r="50" />
		</g>
		<circle fill="#bc44c7" cx="50" cy="700" r="50" />
		<g fill="#c846cf">
			<circle cx="0" cy="750" r="50" />
			<circle cx="100" cy="750" r="50" />
		</g>
		<circle fill="#d347d7" cx="50" cy="800" r="50" />
		<g fill="#de49e0">
			<circle cx="0" cy="850" r="50" />
			<circle cx="100" cy="850" r="50" />
		</g>
		<circle fill="#e94ae8" cx="50" cy="900" r="50" />
		<g fill="#f44cf0">
			<circle cx="0" cy="950" r="50" />
			<circle cx="100" cy="950" r="50" />
		</g>
		<circle fill="#ff4df8" cx="50" cy="1000" r="50" />
	</g>
</svg>
